# xmcd
#
# Track frame offsets:
#	150
#	3883
#	16446
#	23116
#	26036
#	35533
#	42879
#	55152
#	62370
#	70145
#	78639
#	96104
#	106512
#	110108
#	122326
#	130424
#	138937
#	148434
#	165601
#	170492
#	181870
#
# Disc length: 2583 seconds
#
# Revision: 1
# Processed by: cddbd v1.5.1PL0 Copyright (c) Steve Scherf et al.
# Submitted via: CDmax 1.9
#
DISCID=160a1515
DTITLE=Johnny Cash - The Holy Land
DYEAR=1969
DGENRE=Country
TTITLE0=Prologue
TTITLE1=Land of Israel
TTITLE2=A Mother's Love (Narrative)
TTITLE3=This Is Nazareth
TTITLE4=Nazarene
TTITLE5=Town of Cana (Narrative)
TTITLE6=He Turned The Water Into Wine
TTITLE7=My Wife June At Sea Of Galilee (Narrative)
TTITLE8=Beautiful Words (Narrative)
TTITLE9=Our Guide Jacob At Mount Tabor
TTITLE10=The Ten Commandments
TTITLE11=Daddy Sang Bass
TTITLE12=At The Wailing Wall (Narrative)
TTITLE13=Come To The Wailing Wall
TTITLE14=In Bethlehem (Narrative)
TTITLE15=In The Garden Of Gethsemane (Narrative)
TTITLE16=The Fourth Man
TTITLE17=On The Via Dolorosa (Narrative)
TTITLE18=Church Of The Holy Sepulchre (Narrative)
TTITLE19=At Calvary (Narrative)
TTITLE20=God Is Not Dead
EXTD=
EXTT0=
EXTT1=
EXTT2=
EXTT3=
EXTT4=
EXTT5=
EXTT6=
EXTT7=
EXTT8=
EXTT9=
EXTT10=
EXTT11=
EXTT12=
EXTT13=
EXTT14=
EXTT15=
EXTT16=
EXTT17=
EXTT18=
EXTT19=
EXTT20=
PLAYORDER=
